<svg width="1281" height="1280" viewBox="0 0 1281 1280" fill="none" xmlns="http://www.w3.org/2000/svg">
<!-- <path d="M1279.5 640C1279.5 993.186 993.336 1279.5 640.334 1279.5C287.332 1279.5 1.16687 993.186 1.16687 640C1.16687 286.814 287.332 0.5 640.334 0.5C993.336 0.5 1279.5 286.814 1279.5 640Z" stroke="black" stroke-opacity="0.1"/> -->
<!-- <path d="M959.667 640C959.667 816.455 816.696 959.5 640.334 959.5C463.971 959.5 321 816.455 321 640C321 463.545 463.971 320.5 640.334 320.5C816.696 320.5 959.667 463.545 959.667 640Z" stroke="black" stroke-opacity="0.1"/> -->
<path d="M640.33 1279.5C287.33 1279.5 1.17 993.19 1.17 640C1.17 286.81 287.33 0.5 640.33 0.5C993.34 0.5 1279.5 286.81 1279.5 640C1279.5 993.19 993.34 1279.5 640.33 1279.5Z" stroke="black" stroke-opacity="0.1"></path>
<path d="M640.33 959.5C463.97 959.5 321 816.46 321 640C321 463.55 463.97 320.5 640.33 320.5C816.7 320.5 959.67 463.55 959.67 640C959.67 816.46 816.7 959.5 640.33 959.5Z" stroke="black" stroke-opacity="0.1"></path>
<path d="M640.33 719.5C596.45 719.5 560.88 683.91 560.88 640C560.88 596.09 596.45 560.5 640.33 560.5C684.22 560.5 719.79 596.09 719.79 640C719.79 683.91 684.22 719.5 640.33 719.5Z" stroke="black" stroke-opacity="0.1"></path>
</svg>
