<svg aria-hidden="true" style="position: absolute; width: 0; height: 0; overflow: hidden;" version="1.1" xmlns="http://www.w3.org/2000/svg" xmlns:xlink="http://www.w3.org/1999/xlink">
    <defs>
        <symbol id="icon-facebook" viewBox="0 0 32 32">
            <path d="M19 6h5v-6h-5c-3.86 0-7 3.14-7 7v3h-4v6h4v16h6v-16h5l1-6h-6v-3c0-0.542 0.458-1 1-1z"></path>
        </symbol>
        <symbol id="icon-instagram" viewBox="0 0 32 32">
            <path d="M16 2.881c4.275 0 4.781 0.019 6.462 0.094 1.563 0.069 2.406 0.331 2.969 0.55 0.744 0.288 1.281 0.638 1.837 1.194 0.563 0.563 0.906 1.094 1.2 1.838 0.219 0.563 0.481 1.412 0.55 2.969 0.075 1.688 0.094 2.194 0.094 6.463s-0.019 4.781-0.094 6.463c-0.069 1.563-0.331 2.406-0.55 2.969-0.288 0.744-0.637 1.281-1.194 1.837-0.563 0.563-1.094 0.906-1.837 1.2-0.563 0.219-1.413 0.481-2.969 0.55-1.688 0.075-2.194 0.094-6.463 0.094s-4.781-0.019-6.463-0.094c-1.563-0.069-2.406-0.331-2.969-0.55-0.744-0.288-1.281-0.637-1.838-1.194-0.563-0.563-0.906-1.094-1.2-1.837-0.219-0.563-0.481-1.413-0.55-2.969-0.075-1.688-0.094-2.194-0.094-6.463s0.019-4.781 0.094-6.463c0.069-1.563 0.331-2.406 0.55-2.969 0.288-0.744 0.638-1.281 1.194-1.838 0.563-0.563 1.094-0.906 1.838-1.2 0.563-0.219 1.412-0.481 2.969-0.55 1.681-0.075 2.188-0.094 6.463-0.094zM16 0c-4.344 0-4.887 0.019-6.594 0.094-1.7 0.075-2.869 0.35-3.881 0.744-1.056 0.412-1.95 0.956-2.837 1.85-0.894 0.888-1.438 1.781-1.85 2.831-0.394 1.019-0.669 2.181-0.744 3.881-0.075 1.713-0.094 2.256-0.094 6.6s0.019 4.887 0.094 6.594c0.075 1.7 0.35 2.869 0.744 3.881 0.413 1.056 0.956 1.95 1.85 2.837 0.887 0.887 1.781 1.438 2.831 1.844 1.019 0.394 2.181 0.669 3.881 0.744 1.706 0.075 2.25 0.094 6.594 0.094s4.888-0.019 6.594-0.094c1.7-0.075 2.869-0.35 3.881-0.744 1.050-0.406 1.944-0.956 2.831-1.844s1.438-1.781 1.844-2.831c0.394-1.019 0.669-2.181 0.744-3.881 0.075-1.706 0.094-2.25 0.094-6.594s-0.019-4.887-0.094-6.594c-0.075-1.7-0.35-2.869-0.744-3.881-0.394-1.063-0.938-1.956-1.831-2.844-0.887-0.887-1.781-1.438-2.831-1.844-1.019-0.394-2.181-0.669-3.881-0.744-1.712-0.081-2.256-0.1-6.6-0.1v0z"></path>
            <path d="M16 7.781c-4.537 0-8.219 3.681-8.219 8.219s3.681 8.219 8.219 8.219 8.219-3.681 8.219-8.219c0-4.537-3.681-8.219-8.219-8.219zM16 21.331c-2.944 0-5.331-2.387-5.331-5.331s2.387-5.331 5.331-5.331c2.944 0 5.331 2.387 5.331 5.331s-2.387 5.331-5.331 5.331z"></path>
            <path d="M26.462 7.456c0 1.060-0.859 1.919-1.919 1.919s-1.919-0.859-1.919-1.919c0-1.060 0.859-1.919 1.919-1.919s1.919 0.859 1.919 1.919z"></path>
        </symbol>
        <symbol id="icon-twitter" viewBox="0 0 32 32">
            <path d="M32 7.075c-1.175 0.525-2.444 0.875-3.769 1.031 1.356-0.813 2.394-2.1 2.887-3.631-1.269 0.75-2.675 1.3-4.169 1.594-1.2-1.275-2.906-2.069-4.794-2.069-3.625 0-6.563 2.938-6.563 6.563 0 0.512 0.056 1.012 0.169 1.494-5.456-0.275-10.294-2.888-13.531-6.862-0.563 0.969-0.887 2.1-0.887 3.3 0 2.275 1.156 4.287 2.919 5.463-1.075-0.031-2.087-0.331-2.975-0.819 0 0.025 0 0.056 0 0.081 0 3.181 2.263 5.838 5.269 6.437-0.55 0.15-1.131 0.231-1.731 0.231-0.425 0-0.831-0.044-1.237-0.119 0.838 2.606 3.263 4.506 6.131 4.563-2.25 1.762-5.075 2.813-8.156 2.813-0.531 0-1.050-0.031-1.569-0.094 2.913 1.869 6.362 2.95 10.069 2.95 12.075 0 18.681-10.006 18.681-18.681 0-0.287-0.006-0.569-0.019-0.85 1.281-0.919 2.394-2.075 3.275-3.394z"></path>
        </symbol>

        <symbol id="icon-play" viewBox="0 0 68 82">
            <path d="M1.18372 79.913V2L65.1504 40.9565L1.18372 79.913Z" stroke="white" stroke-width="2" stroke-linecap="square" fill="none"/>
        </symbol>

        <symbol id="icon-content" viewBox="0 0 153 155" fill="transparent">
            <path d="M76.6055 48.22C41.6656 48.22 21.3294 48.22 15.5969 48.22C6.99805 48.22 1.53882 53.8831 1.53882 61.9891C1.53882 70.0951 1.53882 129.854 1.53882 138.486C1.53882 147.117 4.7699 153.414 15.5969 153.414C22.8149 153.414 43.1661 153.414 76.6507 153.414" stroke="#3F3F3F" stroke-width="2" stroke-linecap="round" stroke-linejoin="round"/>
            <path d="M76.5535 61.5752C39.2791 61.5752 19.932 61.5752 18.5122 61.5752C16.3826 61.5752 14.6295 63.4042 14.6295 65.3065C14.6295 67.2089 14.6295 134.243 14.6295 136.184C14.6295 138.124 16.0182 140.28 18.8532 140.28C20.7432 140.28 39.9845 140.28 76.577 140.28" stroke="#3F3F3F" stroke-width="2" stroke-linecap="round" stroke-linejoin="round"/>
            <path d="M76.2077 48.22C111.147 48.22 131.484 48.22 137.216 48.22C145.815 48.22 151.274 53.8831 151.274 61.9891C151.274 70.0951 151.274 129.854 151.274 138.486C151.274 147.117 148.043 153.414 137.216 153.414C129.998 153.414 109.647 153.414 76.1624 153.414" stroke="#3F3F3F" stroke-width="2" stroke-linecap="round" stroke-linejoin="round"/>
            <path d="M76.2597 61.5752C113.534 61.5752 132.881 61.5752 134.301 61.5752C136.431 61.5752 138.184 63.4042 138.184 65.3065C138.184 67.2089 138.184 134.243 138.184 136.184C138.184 138.124 136.795 140.28 133.96 140.28C132.07 140.28 112.829 140.28 76.2362 140.28" stroke="#3F3F3F" stroke-width="2" stroke-linecap="round" stroke-linejoin="round"/>
            <path d="M50.2731 21.5867L76.5561 48.0933" stroke="#3F3F3F" stroke-width="2" stroke-linecap="round" stroke-linejoin="round"/>
            <path d="M117.1 7.88574L76.556 48.0933" stroke="#3F3F3F" stroke-width="2" stroke-linecap="round" stroke-linejoin="round"/>
            <path d="M24.3194 85.0805C28.6544 85.0805 28.9701 77.9143 35.8934 77.9143C42.8167 77.9143 42.8618 85.1033 48.8094 85.1033C54.7569 85.1033 55.0296 77.9143 61.952 77.9143C68.8744 77.9143 68.3218 85.1033 74.9274 85.1033C81.5331 85.1033 81.5498 78.4399 87.7856 78.4399C94.0214 78.4399 94.0882 85.1033 100.905 85.1033C107.721 85.1033 107.147 78.4399 113.754 78.4399C120.36 78.4399 119.94 85.1033 125.358 85.1033" stroke="#3F3F3F" stroke-width="2" stroke-linecap="round" stroke-linejoin="round"/>
            <path d="M24.3194 104.623C28.6544 104.623 28.9701 97.457 35.8934 97.457C42.8167 97.457 42.8618 104.646 48.8094 104.646C54.7569 104.646 55.0296 97.457 61.952 97.457C68.8744 97.457 68.3218 104.646 74.9274 104.646C81.5331 104.646 81.5498 97.9826 87.7856 97.9826C94.0214 97.9826 94.0882 104.646 100.905 104.646C107.721 104.646 107.147 97.9826 113.754 97.9826C120.36 97.9826 119.94 104.646 125.358 104.646" stroke="#3F3F3F" stroke-width="2" stroke-linecap="round" stroke-linejoin="round"/>
            <path d="M24.3194 124.166C28.6544 124.166 28.9701 117 35.8934 117C42.8167 117 42.8618 124.189 48.8094 124.189C54.7569 124.189 55.0296 117 61.952 117C68.8744 117 68.3218 124.189 74.9274 124.189C81.5331 124.189 81.5498 117.526 87.7856 117.526C94.0214 117.526 94.0882 124.189 100.905 124.189C107.721 124.189 107.147 117.526 113.754 117.526C120.36 117.526 119.94 124.189 125.358 124.189" stroke="#3F3F3F" stroke-width="2" stroke-linecap="round" stroke-linejoin="round"/>
            <ellipse cx="48.7087" cy="19" rx="6" ry="5.99688" transform="rotate(-90 48.7087 19)" fill="#C2C2C2"/>
            <ellipse cx="48.7087" cy="19" rx="4.5" ry="4.49766" transform="rotate(-90 48.7087 19)" stroke="#151515" stroke-width="3"/>
            <ellipse cx="48.7087" cy="19" rx="6" ry="5.99688" transform="rotate(-90 48.7087 19)" stroke="#151515" stroke-width="2"/>
            <ellipse cx="118.672" cy="7" rx="6" ry="5.99688" transform="rotate(-90 118.672 7)" fill="#C2C2C2"/>
            <ellipse cx="118.672" cy="7" rx="4.5" ry="4.49766" transform="rotate(-90 118.672 7)" stroke="#151515" stroke-width="3"/>
            <ellipse cx="118.672" cy="7" rx="6" ry="5.99688" transform="rotate(-90 118.672 7)" stroke="#151515" stroke-width="2"/>
        </symbol>

        <symbol id="icon-research" viewBox="0 0 167 140" fill="transparent">
            <path fill-rule="evenodd" clip-rule="evenodd" d="M159.682 108.583C159.682 114.339 155.244 119 149.775 119H17.6695C12.2003 119 7.7616 114.339 7.7616 108.583V11.4168C7.7616 5.661 12.2003 1 17.6695 1H149.775C155.244 1 159.682 5.661 159.682 11.4168V108.583Z" stroke="#3F3F3F" stroke-width="2" stroke-linecap="round" stroke-linejoin="round"/>
            <path d="M35.747 133H127.699" stroke="#3F3F3F" stroke-width="2" stroke-linecap="round" stroke-linejoin="round"/>
            <path d="M81.7231 119V133" stroke="#3F3F3F" stroke-width="2" stroke-linecap="round" stroke-linejoin="round"/>
            <path d="M7.7616 91H159.682" stroke="#3F3F3F" stroke-width="2" stroke-linecap="round" stroke-linejoin="round"/>
            <path d="M29.7501 73L76.5936 29L109.18 59.6087L137.694 32.8261" stroke="#3F3F3F" stroke-width="2" stroke-linecap="round" stroke-linejoin="round"/>
            <ellipse cx="29.7501" cy="73" rx="6" ry="5.99688" transform="rotate(-90 29.7501 73)" fill="#C2C2C2"/>
            <ellipse cx="29.7501" cy="73" rx="4.5" ry="4.49766" transform="rotate(-90 29.7501 73)" stroke="#151515" stroke-width="3"/>
            <ellipse cx="29.7501" cy="73" rx="6" ry="5.99688" transform="rotate(-90 29.7501 73)" stroke="#151515" stroke-width="2"/>
            <ellipse cx="77.7252" cy="29" rx="6" ry="5.99688" transform="rotate(-90 77.7252 29)" fill="#C2C2C2"/>
            <ellipse cx="77.7251" cy="29" rx="4.5" ry="4.49766" transform="rotate(-90 77.7251 29)" stroke="#151515" stroke-width="3"/>
            <ellipse cx="77.7252" cy="29" rx="6" ry="5.99688" transform="rotate(-90 77.7252 29)" stroke="#151515" stroke-width="2"/>
            <ellipse cx="109.708" cy="59" rx="6" ry="5.99688" transform="rotate(-90 109.708 59)" fill="#C2C2C2"/>
            <ellipse cx="109.708" cy="59" rx="4.5" ry="4.49766" transform="rotate(-90 109.708 59)" stroke="#151515" stroke-width="3"/>
            <ellipse cx="109.708" cy="59" rx="6" ry="5.99688" transform="rotate(-90 109.708 59)" stroke="#151515" stroke-width="2"/>
            <ellipse cx="139.693" cy="31" rx="6" ry="5.99688" transform="rotate(-90 139.693 31)" fill="#C2C2C2"/>
            <ellipse cx="139.693" cy="31" rx="4.5" ry="4.49766" transform="rotate(-90 139.693 31)" stroke="#151515" stroke-width="3"/>
            <ellipse cx="139.693" cy="31" rx="6" ry="5.99688" transform="rotate(-90 139.693 31)" stroke="#151515" stroke-width="2"/>
            <ellipse cx="159.682" cy="91" rx="6" ry="5.99688" transform="rotate(-90 159.682 91)" fill="#C2C2C2"/>
            <ellipse cx="159.682" cy="91" rx="4.5" ry="4.49766" transform="rotate(-90 159.682 91)" stroke="#151515" stroke-width="3"/>
            <ellipse cx="159.682" cy="91" rx="6" ry="5.99688" transform="rotate(-90 159.682 91)" stroke="#151515" stroke-width="2"/>
            <ellipse cx="7.76159" cy="91" rx="6" ry="5.99688" transform="rotate(-90 7.76159 91)" fill="#C2C2C2"/>
            <ellipse cx="7.76157" cy="91" rx="4.5" ry="4.49766" transform="rotate(-90 7.76157 91)" stroke="#151515" stroke-width="3"/>
            <ellipse cx="7.76159" cy="91" rx="6" ry="5.99688" transform="rotate(-90 7.76159 91)" stroke="#151515" stroke-width="2"/>
            <ellipse cx="81.7231" cy="117" rx="6" ry="5.99688" transform="rotate(-90 81.7231 117)" fill="#C2C2C2"/>
            <ellipse cx="81.7231" cy="117" rx="4.5" ry="4.49766" transform="rotate(-90 81.7231 117)" stroke="#151515" stroke-width="3"/>
            <ellipse cx="81.7231" cy="117" rx="6" ry="5.99688" transform="rotate(-90 81.7231 117)" stroke="#151515" stroke-width="2"/>
            <ellipse cx="33.748" cy="133" rx="6" ry="5.99688" transform="rotate(-90 33.748 133)" fill="#C2C2C2"/>
            <ellipse cx="33.7481" cy="133" rx="4.5" ry="4.49766" transform="rotate(-90 33.7481 133)" stroke="#151515" stroke-width="3"/>
            <ellipse cx="33.748" cy="133" rx="6" ry="5.99688" transform="rotate(-90 33.748 133)" stroke="#151515" stroke-width="2"/>
            <ellipse cx="129.698" cy="133" rx="6" ry="5.99688" transform="rotate(-90 129.698 133)" fill="#C2C2C2"/>
            <ellipse cx="129.698" cy="133" rx="4.5" ry="4.49766" transform="rotate(-90 129.698 133)" stroke="#151515" stroke-width="3"/>
            <ellipse cx="129.698" cy="133" rx="6" ry="5.99688" transform="rotate(-90 129.698 133)" stroke="#151515" stroke-width="2"/>
        </symbol>

        <symbol id="icon-product-design" viewBox="0 0 143 158" fill="transparent" >
            <ellipse cx="71.6764" cy="79.8041" rx="14.4752" ry="14.4742" stroke="#3F3F3F" stroke-width="1.60825" stroke-linecap="round" stroke-linejoin="round"/>
            <path d="M129.093 46.031L84.9454 71.12" stroke="#3F3F3F" stroke-width="1.60825" stroke-linecap="round" stroke-linejoin="round"/>
            <path d="M14.1777 46.031L58.3254 71.12" stroke="#3F3F3F" stroke-width="1.60825" stroke-linecap="round" stroke-linejoin="round"/>
            <path fill-rule="evenodd" clip-rule="evenodd" d="M71.1201 5.82471L134.496 42.4123V115.588L71.1201 152.175L7.74414 115.588V42.4123L71.1201 5.82471Z" stroke="#3F3F3F" stroke-width="1.60825" stroke-linecap="round" stroke-linejoin="round"/>
            <ellipse cx="72.0785" cy="7.4329" rx="4.82507" ry="4.82474" fill="#C2C2C2"/>
            <ellipse cx="72.0785" cy="7.43301" rx="3.6188" ry="3.61856" stroke="#151515" stroke-width="2.41237"/>
            <ellipse cx="72.0785" cy="7.4329" rx="4.82507" ry="4.82474" stroke="#151515" stroke-width="1.60825"/>
            <ellipse cx="72.0785" cy="150.567" rx="4.82507" ry="4.82474" fill="#C2C2C2"/>
            <ellipse cx="72.0785" cy="150.567" rx="3.6188" ry="3.61856" stroke="#151515" stroke-width="2.41237"/>
            <ellipse cx="72.0785" cy="150.567" rx="4.82507" ry="4.82474" stroke="#151515" stroke-width="1.60825"/>
            <ellipse cx="134.804" cy="42.8145" rx="4.82507" ry="4.82474" fill="#C2C2C2"/>
            <ellipse cx="134.804" cy="42.8146" rx="3.6188" ry="3.61856" stroke="#151515" stroke-width="2.41237"/>
            <ellipse cx="134.804" cy="42.8145" rx="4.82507" ry="4.82474" stroke="#151515" stroke-width="1.60825"/>
            <ellipse cx="7.74426" cy="42.8145" rx="4.82507" ry="4.82474" fill="#C2C2C2"/>
            <ellipse cx="7.74429" cy="42.8146" rx="3.6188" ry="3.61856" stroke="#151515" stroke-width="2.41237"/>
            <ellipse cx="7.74426" cy="42.8145" rx="4.82507" ry="4.82474" stroke="#151515" stroke-width="1.60825"/>
            <ellipse cx="134.804" cy="113.577" rx="4.82507" ry="4.82474" fill="#C2C2C2"/>
            <ellipse cx="134.804" cy="113.578" rx="3.6188" ry="3.61856" stroke="#151515" stroke-width="2.41237"/>
            <ellipse cx="134.804" cy="113.577" rx="4.82507" ry="4.82474" stroke="#151515" stroke-width="1.60825"/>
            <ellipse cx="7.74426" cy="113.577" rx="4.82507" ry="4.82474" fill="#C2C2C2"/>
            <ellipse cx="7.74429" cy="113.578" rx="3.6188" ry="3.61856" stroke="#151515" stroke-width="2.41237"/>
            <ellipse cx="7.74426" cy="113.577" rx="4.82507" ry="4.82474" stroke="#151515" stroke-width="1.60825"/>
            <ellipse cx="72.0785" cy="7.43299" rx="6.43343" ry="6.43299" stroke="#3F3F3F" stroke-width="1.60825" stroke-linecap="round" stroke-linejoin="round"/>
            <ellipse cx="72.0785" cy="150.567" rx="6.43343" ry="6.43299" stroke="#3F3F3F" stroke-width="1.60825" stroke-linecap="round" stroke-linejoin="round"/>
            <ellipse cx="134.805" cy="42.8143" rx="6.43343" ry="6.43299" stroke="#3F3F3F" stroke-width="1.60825" stroke-linecap="round" stroke-linejoin="round"/>
            <ellipse cx="7.74422" cy="42.8143" rx="6.43343" ry="6.43299" stroke="#3F3F3F" stroke-width="1.60825" stroke-linecap="round" stroke-linejoin="round"/>
            <ellipse cx="134.805" cy="113.577" rx="6.43343" ry="6.43299" stroke="#3F3F3F" stroke-width="1.60825" stroke-linecap="round" stroke-linejoin="round"/>
            <ellipse cx="7.74422" cy="113.577" rx="6.43343" ry="6.43299" stroke="#3F3F3F" stroke-width="1.60825" stroke-linecap="round" stroke-linejoin="round"/>
            <path d="M72.0785 95.0825V143.357" stroke="#3F3F3F" stroke-width="1.60825" stroke-linecap="round" stroke-linejoin="round"/>
        </symbol>

        <symbol id="icon-walk" viewBox="0 0 43 61">
            <path d="M20.7496 35.7271L30.2567 44.2711C30.8864 44.8407 31.2452 45.6507 31.2442 46.5001V57.5001C31.2442 59.1569 29.9017 60.5001 28.2457 60.5001V60.5001C26.5897 60.5001 25.2473 59.1569 25.2473 57.5001V47.8361L18.3599 43.8671" stroke="white"/>
            <ellipse cx="22.7486" cy="7" rx="6.49662" ry="6.5" fill="white"/>
            <path d="M12.7428 26.1829L9.2556 26.4999L7.23365 32.5679C6.97478 33.3456 6.41767 33.9885 5.68494 34.3552C4.95221 34.7218 4.10389 34.7822 3.32668 34.5229V34.5229C2.52644 34.2561 1.8701 33.6734 1.51011 32.9101C1.15012 32.1469 1.1178 31.2696 1.42068 30.4819L4.67498 22.0169C5.03863 21.0713 5.85472 20.3733 6.84485 20.1609L17.5663 17.6289" stroke="white"/>
            <path fill-rule="evenodd" clip-rule="evenodd" d="M42.1485 26.772C41.9556 26.0001 41.4642 25.3364 40.7823 24.927C40.1004 24.5176 39.2839 24.396 38.5124 24.589L31.593 26.32L22.0329 18.595C20.4537 17.4123 18.3615 17.1687 16.5529 17.9568C14.7444 18.7449 13.4977 20.4435 13.2875 22.406L8.30709 57C8.03787 58.5536 9.02151 60.0491 10.5541 60.4163C12.0867 60.7835 13.6407 59.896 14.1041 58.389L23.0324 27.92L29.4711 31.82C30.3822 32.3703 31.475 32.5344 32.5075 32.276L39.9656 30.41C40.7373 30.2173 41.4009 29.7257 41.8102 29.0434C42.2196 28.3611 42.3413 27.544 42.1485 26.772V26.772Z" stroke="white"/>
        </symbol>

        <symbol id="icon-battery" viewBox="0 0 44 61">
            <path fill-rule="evenodd" clip-rule="evenodd" d="M39.241 60.5H5.25872C3.05087 60.5 1.2608 58.709 1.2608 56.5V10.5C1.2608 8.291 3.05087 6.5 5.25872 6.5H39.241C41.4489 6.5 43.2389 8.291 43.2389 10.5V56.5C43.2389 58.709 41.4489 60.5 39.241 60.5Z" stroke="white" stroke-linecap="square"/>
            <path d="M6.25821 0.5H16.253" stroke="white" stroke-linecap="square"/>
            <path d="M29.2462 0.5H39.241" stroke="white" stroke-linecap="square"/>
            <path fill-rule="evenodd" clip-rule="evenodd" d="M24.2488 19.5L13.2545 35.5H22.2499L20.2509 46.5L31.2452 30.5H22.2499L24.2488 19.5Z" fill="white"/>
        </symbol>

        <symbol id="icon-cyclist" viewBox="0 0 62 57">
            <ellipse cx="12.0932" cy="45.5" rx="10.9943" ry="11" stroke="white" stroke-linecap="square"/>
            <ellipse cx="50.0734" cy="45.5" rx="10.9943" ry="11" stroke="white" stroke-linecap="square"/>
            <ellipse cx="45.076" cy="6.5" rx="5.99688" ry="6" fill="white"/>
            <path fill-rule="evenodd" clip-rule="evenodd" d="M52.71 21.2608L45.176 20.4998L38.1656 14.5828C36.2536 13.0693 33.528 13.161 31.722 14.7998L20.7277 24.7998C18.7205 26.6737 18.5715 29.8067 20.3919 31.8628C21.6682 33.3748 28.0879 37.9628 28.0879 37.9628V51.4998C28.0879 53.1566 29.4303 54.4998 31.0863 54.4998C32.7423 54.4998 34.0847 53.1566 34.0847 51.4998V36.4998C34.0849 35.5748 33.6586 34.7014 32.9293 34.1328L28.8315 30.9418L38.1776 22.4418L42.1405 25.7928C42.6823 26.2495 43.3681 26.4999 44.0765 26.4998H52.4462C53.8456 26.5014 55.0001 25.4043 55.0705 24.0059C55.141 22.6076 54.1025 21.3999 52.71 21.2608V21.2608Z" stroke="white" stroke-linecap="square"/>
        </symbol>

        <symbol id="icon-arrow-right" viewBox="0 0 20 20">
            <path d="M16.172 9l-6.071-6.071 1.414-1.414 8.485 8.485-8.485 8.485-1.414-1.414 6.071-6.071h-16.172v-2z"></path>
        </symbol>

        <symbol id="icon-arrow-left" viewBox="0 0 20 20">
            <path d="M3.828 9l6.071-6.071-1.414-1.414-8.485 8.485 8.485 8.485 1.414-1.414-6.071-6.071h16.172v-2h-16.172z"></path>
        </symbol>

        <symbol id="icon-plus" viewBox="0 0 16 16">
            <path d="M7.66687 0.5V14.5" stroke="#111111" stroke-linecap="round" stroke-linejoin="round"/>
            <path d="M0.670532 7.5H14.6632" stroke="#111111" stroke-linecap="round" stroke-linejoin="round"/>
        </symbol>

        <symbol id="icon-tap" viewBox="0 0 32 32">
            <path d="M18.808 11.253c0.751-1.060 1.192-2.355 1.192-3.753 0-3.59-2.91-6.5-6.5-6.5s-6.5 2.91-6.5 6.5c0 2.301 1.196 4.323 3 5.478v-1.235c-1.222-1.009-2-2.535-2-4.243 0-3.038 2.462-5.5 5.5-5.5s5.5 2.462 5.5 5.5c0 1.333-0.474 2.556-1.264 3.508 0.376 0.025 0.737 0.11 1.072 0.245v0 0zM17 10.329c0.625-0.773 1-1.757 1-2.829 0-2.485-2.015-4.5-4.5-4.5s-4.5 2.015-4.5 4.5c0 1.072 0.375 2.056 1 2.829v-2.837c0-1.93 1.567-3.491 3.5-3.491 1.929 0 3.5 1.563 3.5 3.491v2.837zM19.499 31c4.143 0 7.501-3.585 7.501-7.5 0 0 0 2.313 0 0v-5.998c0-0.829-0.666-1.502-1.5-1.502-0.828 0-1.5 0.671-1.5 1.502v0.498h-1v-2.494c0-0.832-0.666-1.506-1.5-1.506-0.828 0-1.5 0.672-1.5 1.506v1.494h-1v-2.494c0-0.832-0.666-1.506-1.5-1.506-0.828 0-1.5 0.672-1.5 1.506v3.494h-1v-10.495c0-0.831-0.666-1.505-1.5-1.505-0.828 0-1.5 0.667-1.5 1.505v11.295c-2.058-2.2-4.768-4.621-5.879-3.504-1.087 1.093 1.714 4.105 5.626 10.687 1.763 2.966 3.993 5.016 7.751 5.017v0zM28 23.5c0 4.694-3.806 8.5-8.5 8.5-3.113 0-6.398-1.453-8.659-5.572-3.264-5.946-7.437-9.845-5.45-11.832 1.422-1.422 3.654-0.058 5.609 1.771v0-8.858c0-1.393 1.119-2.508 2.5-2.508 1.39 0 2.5 1.123 2.5 2.508v4.99c0.418-0.313 0.937-0.498 1.5-0.498 1.083 0 1.995 0.677 2.346 1.628 0.441-0.39 1.020-0.628 1.654-0.628 1.39 0 2.5 1.118 2.5 2.498v0.013c0.418-0.313 0.937-0.497 1.5-0.497 1.39 0 2.5 1.119 2.5 2.5v5.986z"></path>
        </symbol>

    </defs>
</svg>
