<svg xmlns="http://www.w3.org/2000/svg" xmlns:xlink="http://www.w3.org/1999/xlink" version="1.1" id="Layer_1" x="0px"
	y="0px" viewBox="0 0 1282 1282" xml:space="preserve">

	<defs>
		<style>
			g {
				display: none;
			}

			g:target {
				display: inline;
			}
		</style>
	</defs>



	<svg id="icon-home" fill="none">
		<path stroke-width="1"
			d="M640.33 1279.5C287.33 1279.5 1.17 993.19 1.17 640C1.17 286.81 287.33 0.5 640.33 0.5C993.34 0.5 1279.5 286.81 1279.5 640C1279.5 993.19 993.34 1279.5 640.33 1279.5Z"
			stroke="black" stroke-opacity="0.4"></path>
		<path stroke-width="1"
			d="M640.33 959.5C463.97 959.5 321 816.46 321 640C321 463.55 463.97 320.5 640.33 320.5C816.7 320.5 959.67 463.55 959.67 640C959.67 816.46 816.7 959.5 640.33 959.5Z"
			stroke="black" stroke-opacity="0.4"></path>
		<path stroke-width="1"
			d="M640.33 719.5C596.45 719.5 560.88 683.91 560.88 640C560.88 596.09 596.45 560.5 640.33 560.5C684.22 560.5 719.79 596.09 719.79 640C719.79 683.91 684.22 719.5 640.33 719.5Z"
			stroke="black" stroke-opacity="0.4"></path>
	</svg>

	<g id="icon-about" fill="none">
		<path
			d="M640.33 1279.5C287.33 1279.5 1.17 993.19 1.17 640C1.17 286.81 287.33 0.5 640.33 0.5C993.34 0.5 1279.5 286.81 1279.5 640C1279.5 993.19 993.34 1279.5 640.33 1279.5Z"
			stroke="black" stroke-opacity="0.4"></path>
		<path
			d="M640.33 959.5C463.97 959.5 321 816.46 321 640C321 463.55 463.97 320.5 640.33 320.5C816.7 320.5 959.67 463.55 959.67 640C959.67 816.46 816.7 959.5 640.33 959.5Z"
			stroke="black" stroke-opacity="0.4"></path>
	</g>

	<g id="icon-first-services" fill="none">
		<path opacity="0.5"
			d="M1280.5 641C1280.5 994.186 994.336 1280.5 641.334 1280.5C288.332 1280.5 2.16736 994.186 2.16736 641C2.16736 287.814 288.332 1.5 641.334 1.5C994.336 1.5 1280.5 287.814 1280.5 641Z"
			stroke="white" />
		<path opacity="0.5" d="M1.66727 1281L1281 1" stroke="white" />
	</g>

	<g id="icon-second-services" fill="none">
		<circle cx="642" cy="641" r="319.5" stroke="white" />
		<circle opacity="0.7" cx="642" cy="641" r="404.5" stroke="white" />
		<path d="M0.999902 1281L1281 1" stroke="white" />
	</g>

	<g id="icon-testimonials" fill="none">
		<circle opacity="0.5" cx="641" cy="641" r="426.833" stroke="white" />
		<circle opacity="0.4" cx="641" cy="641" r="540.344" stroke="white" />
		<circle opacity="0.3" cx="641" cy="641" r="640.5" stroke="white" />
	</g>

</svg>